<svg width="31" height="30" viewBox="0 0 31 30" fill="none" xmlns="http://www.w3.org/2000/svg">
<path d="M15.3362 9.10125C15.4233 9.18856 15.5268 9.25782 15.6407 9.30509C15.7546 9.35235 15.8767 9.37668 16 9.37668C16.1233 9.37668 16.2454 9.35235 16.3593 9.30509C16.4732 9.25782 16.5767 9.18856 16.6637 9.10125L19.4762 6.28875C19.5634 6.20159 19.6326 6.09811 19.6797 5.98422C19.7269 5.87033 19.7512 5.74827 19.7512 5.625C19.7512 5.50173 19.7269 5.37967 19.6797 5.26578C19.6326 5.15189 19.5634 5.04841 19.4762 4.96125C19.3891 4.87408 19.2856 4.80494 19.1717 4.75777C19.0578 4.7106 18.9358 4.68632 18.8125 4.68632C18.6892 4.68632 18.5672 4.7106 18.4533 4.75777C18.3394 4.80494 18.2359 4.87408 18.1487 4.96125L16.9375 6.17438V2.8125C16.9375 2.56386 16.8387 2.3254 16.6629 2.14959C16.4871 1.97377 16.2486 1.875 16 1.875C15.7514 1.875 15.5129 1.97377 15.3371 2.14959C15.1613 2.3254 15.0625 2.56386 15.0625 2.8125V6.17438L13.8512 4.96125C13.7641 4.87408 13.6606 4.80494 13.5467 4.75777C13.4328 4.7106 13.3108 4.68632 13.1875 4.68632C13.0642 4.68632 12.9422 4.7106 12.8283 4.75777C12.7144 4.80494 12.6109 4.87408 12.5237 4.96125C12.4366 5.04841 12.3674 5.15189 12.3203 5.26578C12.2731 5.37967 12.2488 5.50173 12.2488 5.625C12.2488 5.74827 12.2731 5.87033 12.3203 5.98422C12.3674 6.09811 12.4366 6.20159 12.5237 6.28875L15.3362 9.10125ZM5.39312 8.145C5.56893 7.96925 5.80734 7.87051 6.05594 7.87051C6.30453 7.87051 6.54294 7.96925 6.71875 8.145L9.37 10.7944C9.54077 10.9712 9.63527 11.208 9.63313 11.4538C9.63099 11.6996 9.5324 11.9348 9.35858 12.1086C9.18476 12.2824 8.94962 12.381 8.70381 12.3831C8.458 12.3853 8.22119 12.2908 8.04437 12.12L5.39312 9.46875C5.21737 9.29294 5.11864 9.05453 5.11864 8.80594C5.11864 8.55735 5.21737 8.31893 5.39312 8.14313V8.145ZM26.6069 8.145C26.7821 8.32073 26.8804 8.55874 26.8804 8.80688C26.8804 9.05501 26.7821 9.29302 26.6069 9.46875L23.9556 12.12C23.8691 12.2095 23.7657 12.281 23.6513 12.3301C23.5369 12.3792 23.4139 12.4051 23.2894 12.4062C23.165 12.4073 23.0415 12.3835 22.9263 12.3364C22.8111 12.2893 22.7064 12.2196 22.6184 12.1316C22.5304 12.0436 22.4607 11.9389 22.4136 11.8237C22.3665 11.7085 22.3427 11.585 22.3438 11.4606C22.3449 11.3361 22.3708 11.2131 22.4199 11.0987C22.469 10.9843 22.5405 10.8809 22.63 10.7944L25.2812 8.14313C25.4571 7.96737 25.6955 7.86864 25.9441 7.86864C26.1927 7.86864 26.4311 7.96737 26.6069 8.14313V8.145ZM16 13.125C16.9875 13.1247 17.9578 13.3844 18.8131 13.878C19.6685 14.3715 20.3788 15.0816 20.8727 15.9367C21.3666 16.7919 21.6267 17.762 21.6267 18.7496C21.6268 19.7371 21.3669 20.7073 20.8731 21.5625H11.125C10.6311 20.7071 10.3712 19.7368 10.3714 18.7491C10.3715 17.7614 10.6318 16.7912 11.1259 15.9359C11.62 15.0807 12.3306 14.3707 13.1862 13.8773C14.0418 13.3838 15.0123 13.1244 16 13.125ZM22.9562 21.5625C23.416 20.4241 23.5892 19.1902 23.4607 17.9692C23.3322 16.7482 22.9059 15.5775 22.2193 14.5597C21.5327 13.5419 20.6067 12.7083 19.5226 12.1319C18.4386 11.5556 17.2296 11.2542 16.0019 11.2542C14.7741 11.2542 13.5652 11.5556 12.4811 12.1319C11.3971 12.7083 10.4711 13.5419 9.78446 14.5597C9.09783 15.5775 8.67156 16.7482 8.54306 17.9692C8.41457 19.1902 8.58778 20.4241 9.0475 21.5625H1.93562C1.68698 21.5625 1.44853 21.6613 1.27271 21.8371C1.0969 22.0129 0.998123 22.2514 0.998123 22.5C0.998123 22.7486 1.0969 22.9871 1.27271 23.1629C1.44853 23.3387 1.68698 23.4375 1.93562 23.4375H30.0606C30.3093 23.4375 30.5477 23.3387 30.7235 23.1629C30.8994 22.9871 30.9981 22.7486 30.9981 22.5C30.9981 22.2514 30.8994 22.0129 30.7235 21.8371C30.5477 21.6613 30.3093 21.5625 30.0606 21.5625H22.9544H22.9562ZM0.999998 18.75C0.999998 18.5014 1.09877 18.2629 1.27459 18.0871C1.4504 17.9113 1.68886 17.8125 1.9375 17.8125H5.6875C5.93614 17.8125 6.17459 17.9113 6.35041 18.0871C6.52623 18.2629 6.625 18.5014 6.625 18.75C6.625 18.9986 6.52623 19.2371 6.35041 19.4129C6.17459 19.5887 5.93614 19.6875 5.6875 19.6875H1.9375C1.68886 19.6875 1.4504 19.5887 1.27459 19.4129C1.09877 19.2371 0.999998 18.9986 0.999998 18.75ZM25.375 18.75C25.375 18.5014 25.4738 18.2629 25.6496 18.0871C25.8254 17.9113 26.0639 17.8125 26.3125 17.8125H30.0625C30.3111 17.8125 30.5496 17.9113 30.7254 18.0871C30.9012 18.2629 31 18.5014 31 18.75C31 18.9986 30.9012 19.2371 30.7254 19.4129C30.5496 19.5887 30.3111 19.6875 30.0625 19.6875H26.3125C26.0639 19.6875 25.8254 19.5887 25.6496 19.4129C25.4738 19.2371 25.375 18.9986 25.375 18.75Z" fill="black"/>
</svg>
