<svg width="150" height="150" viewBox="0 0 150 150" fill="none" xmlns="http://www.w3.org/2000/svg">
<path d="M51.5625 78.0469C63.6006 78.0469 73.3594 68.2881 73.3594 56.25C73.3594 44.2119 63.6006 34.4531 51.5625 34.4531C39.5244 34.4531 29.7656 44.2119 29.7656 56.25C29.7656 68.2881 39.5244 78.0469 51.5625 78.0469Z" fill="#FFCE31"/>
<path d="M60.2344 30.7031L51.5625 9.375L42.8906 30.7031C45.7031 30.2344 48.75 30 51.5625 30C54.6094 30 57.4219 30.2344 60.2344 30.7031ZM42.8906 81.7969L51.5625 103.125L60.2344 81.7969C57.4219 82.2656 54.375 82.5 51.5625 82.5C48.5156 82.5 45.7031 82.2656 42.8906 81.7969V81.7969ZM77.1094 64.9219L98.4375 56.25L77.1094 47.5781C77.5781 50.3906 77.8125 53.4375 77.8125 56.25C77.8125 59.2969 77.5781 62.1094 77.1094 64.9219ZM26.0156 47.5781L4.6875 56.25L26.0156 64.9219C25.5469 62.1094 25.3125 59.0625 25.3125 56.25C25.3125 53.2031 25.5469 50.3906 26.0156 47.5781V47.5781ZM75.7031 44.5312L84.6094 23.2031L63.2812 32.1094C65.625 33.75 67.9687 35.625 70.0781 37.7344C72.1875 39.8438 74.0625 41.9531 75.7031 44.5312V44.5312ZM27.4219 67.9688L18.5156 89.2969L39.8438 80.3906C37.5 78.75 35.1563 76.875 33.0469 74.7656C30.9375 72.6562 29.0625 70.5469 27.4219 67.9688V67.9688ZM63.2812 80.3906L84.6094 89.2969L75.7031 67.9688C74.0625 70.3125 72.1875 72.6562 70.0781 74.7656C67.9687 76.875 65.8594 78.75 63.2812 80.3906V80.3906ZM39.8438 32.1094L18.5156 23.2031L27.4219 44.5312C29.0625 42.1875 30.9375 39.8438 33.0469 37.7344C35.1563 35.625 37.2656 33.75 39.8438 32.1094" fill="#FFCE31"/>
<path d="M40.3125 136.172C37.9688 136.172 35.625 135.703 33.5156 135C24.6094 131.953 18.5156 123.516 18.5156 113.906C18.5156 107.578 21.3281 101.484 26.0156 97.2656C27.1875 96.0938 28.5938 95.1562 30 94.4531L31.4062 89.2969C34.9219 76.4062 46.6406 67.5 59.7656 67.5C61.1719 67.5 62.3437 67.5 63.9844 67.7344L67.5 68.4375L67.9688 67.2656C73.3594 57.6563 83.4375 51.5625 94.2187 51.5625C110.859 51.5625 124.219 65.1563 124.219 82.0312V85.0781C125.391 85.5469 126.797 86.25 127.969 86.9531C135.937 91.6406 140.859 100.312 140.859 109.687C140.859 121.875 132.656 132.422 120.703 135.234C118.828 135.703 116.719 135.938 114.844 135.938L40.3125 136.172" fill="white"/>
<path d="M94.4531 56.4844C108.516 56.4844 120 68.2031 120 82.5V84.6094C114.141 85.0781 108.75 87.4219 104.531 91.1719C107.578 89.2969 111.328 88.3594 115.313 88.3594C116.719 88.3594 118.125 88.5938 119.531 88.8281C121.875 89.2969 123.984 90.2344 126.094 91.4063C132.422 95.1563 136.875 102.188 136.875 110.156C136.875 120.469 129.844 129.141 120.234 131.25C118.594 131.719 117.188 131.719 115.313 131.719H40.3125C38.4375 131.719 36.5625 131.484 34.9219 130.781C27.8906 128.438 22.9688 121.875 22.9688 113.906C22.9688 108.516 25.3125 103.828 29.0625 100.547C30.7031 99.1406 32.5781 97.9688 34.6875 97.2656C36.5625 96.5625 38.4375 96.3281 40.5469 96.3281C46.1719 96.3281 51.0938 99.1406 54.375 103.125H54.6094C50.8594 96.0938 44.0625 91.4062 35.8594 90.4687C38.9063 79.6875 48.5156 71.9531 60 71.9531C61.1719 71.9531 62.3438 72.1875 63.5156 72.1875C65.8594 72.4219 67.9687 73.125 70.0781 74.0625C77.8125 77.5781 83.4375 84.8438 84.8438 93.75V93.5156C84.8438 83.4375 79.6875 74.7656 72.1875 69.6094C76.4062 61.875 84.6094 56.4844 94.4531 56.4844V56.4844ZM94.4531 47.8125C82.7344 47.8125 71.7187 53.9062 65.3906 63.9844H64.6875C62.8125 63.75 61.4062 63.5156 59.7656 63.5156C44.7656 63.5156 31.1719 73.8281 27.1875 88.3594L26.25 91.875C25.0781 92.5781 24.1406 93.2813 23.2031 94.2188C17.3437 99.1406 14.0625 106.406 14.0625 114.141C14.0625 125.625 21.3281 135.703 32.1094 139.453C34.6875 140.391 37.5 140.859 40.3125 140.859H115.078C117.422 140.859 119.531 140.625 121.875 140.156C135.703 136.875 145.312 124.687 145.312 110.391C145.312 99.6094 139.453 89.2969 130.078 83.9062L128.672 83.2031V82.9688C128.672 63.2813 113.437 47.8125 94.4531 47.8125V47.8125Z" fill="#75D6FF"/>
</svg>
