<svg width="31" height="30" viewBox="0 0 31 30" fill="none" xmlns="http://www.w3.org/2000/svg">
<path d="M15.3363 2.14875C15.4234 2.06144 15.5268 1.99217 15.6407 1.94491C15.7546 1.89765 15.8767 1.87332 16.0001 1.87332C16.1234 1.87332 16.2455 1.89765 16.3594 1.94491C16.4733 1.99217 16.5767 2.06144 16.6638 2.14875L19.4763 4.96125C19.5635 5.04841 19.6326 5.15189 19.6798 5.26578C19.727 5.37966 19.7512 5.50173 19.7512 5.625C19.7512 5.74827 19.727 5.87033 19.6798 5.98422C19.6326 6.0981 19.5635 6.20158 19.4763 6.28875C19.3891 6.37591 19.2857 6.44506 19.1718 6.49223C19.0579 6.5394 18.9358 6.56368 18.8126 6.56368C18.6893 6.56368 18.5672 6.5394 18.4533 6.49223C18.3395 6.44506 18.236 6.37591 18.1488 6.28875L16.9376 5.07562V8.4375C16.9376 8.68614 16.8388 8.92459 16.663 9.10041C16.4872 9.27622 16.2487 9.375 16.0001 9.375C15.7514 9.375 15.513 9.27622 15.3371 9.10041C15.1613 8.92459 15.0626 8.68614 15.0626 8.4375V5.07562L13.8513 6.28875C13.7641 6.37591 13.6607 6.44506 13.5468 6.49223C13.4329 6.5394 13.3108 6.56368 13.1876 6.56368C13.0643 6.56368 12.9422 6.5394 12.8283 6.49223C12.7145 6.44506 12.611 6.37591 12.5238 6.28875C12.4366 6.20158 12.3675 6.0981 12.3203 5.98422C12.2732 5.87033 12.2489 5.74827 12.2489 5.625C12.2489 5.50173 12.2732 5.37966 12.3203 5.26578C12.3675 5.15189 12.4366 5.04841 12.5238 4.96125L15.3363 2.14875ZM5.39318 8.14312C5.56899 7.96737 5.80741 7.86863 6.056 7.86863C6.30459 7.86863 6.543 7.96737 6.71881 8.14312L9.37006 10.7944C9.54083 10.9712 9.63533 11.208 9.63319 11.4538C9.63105 11.6996 9.53246 11.9348 9.35864 12.1086C9.18482 12.2824 8.94968 12.381 8.70387 12.3831C8.45806 12.3853 8.22125 12.2908 8.04443 12.12L5.39318 9.46875C5.21743 9.29294 5.1187 9.05453 5.1187 8.80593C5.1187 8.55734 5.21743 8.31893 5.39318 8.14312ZM26.6069 8.14312C26.7827 8.31893 26.8814 8.55734 26.8814 8.80593C26.8814 9.05453 26.7827 9.29294 26.6069 9.46875L23.9557 12.12C23.8692 12.2095 23.7658 12.281 23.6514 12.3301C23.537 12.3792 23.414 12.4051 23.2895 12.4062C23.165 12.4073 23.0416 12.3835 22.9264 12.3364C22.8111 12.2893 22.7065 12.2196 22.6184 12.1316C22.5304 12.0436 22.4608 11.9389 22.4137 11.8237C22.3665 11.7085 22.3428 11.585 22.3439 11.4606C22.345 11.3361 22.3708 11.2131 22.42 11.0987C22.4691 10.9843 22.5405 10.8809 22.6301 10.7944L25.2813 8.14312C25.4571 7.96737 25.6955 7.86863 25.9441 7.86863C26.1927 7.86863 26.4311 7.96737 26.6069 8.14312ZM16.0001 13.125C16.9876 13.1247 17.9578 13.3844 18.8132 13.878C19.6685 14.3715 20.3789 15.0816 20.8728 15.9367C21.3667 16.7919 21.6267 17.762 21.6268 18.7496C21.6269 19.7371 21.367 20.7073 20.8732 21.5625H11.1251C10.6312 20.7071 10.3713 19.7368 10.3715 18.7491C10.3716 17.7614 10.6318 16.7911 11.126 15.9359C11.6201 15.0807 12.3307 14.3707 13.1863 13.8773C14.0419 13.3838 15.0124 13.1244 16.0001 13.125ZM22.9563 21.5625C23.416 20.4241 23.5892 19.1902 23.4607 17.9692C23.3323 16.7482 22.906 15.5775 22.2193 14.5597C21.5327 13.5419 20.6067 12.7083 19.5227 12.1319C18.4386 11.5556 17.2297 11.2542 16.0019 11.2542C14.7742 11.2542 13.5652 11.5556 12.4812 12.1319C11.3971 12.7083 10.4712 13.5419 9.78452 14.5597C9.09789 15.5775 8.67162 16.7482 8.54312 17.9692C8.41463 19.1902 8.58784 20.4241 9.04756 21.5625H1.93568C1.68704 21.5625 1.44859 21.6613 1.27277 21.8371C1.09696 22.0129 0.998184 22.2514 0.998184 22.5C0.998184 22.7486 1.09696 22.9871 1.27277 23.1629C1.44859 23.3387 1.68704 23.4375 1.93568 23.4375H30.0607C30.3093 23.4375 30.5478 23.3387 30.7236 23.1629C30.8994 22.9871 30.9982 22.7486 30.9982 22.5C30.9982 22.2514 30.8994 22.0129 30.7236 21.8371C30.5478 21.6613 30.3093 21.5625 30.0607 21.5625H22.9544H22.9563ZM1.00006 18.75C1.00006 18.5014 1.09883 18.2629 1.27465 18.0871C1.45046 17.9113 1.68892 17.8125 1.93756 17.8125H5.68756C5.9362 17.8125 6.17466 17.9113 6.35047 18.0871C6.52629 18.2629 6.62506 18.5014 6.62506 18.75C6.62506 18.9986 6.52629 19.2371 6.35047 19.4129C6.17466 19.5887 5.9362 19.6875 5.68756 19.6875H1.93756C1.68892 19.6875 1.45046 19.5887 1.27465 19.4129C1.09883 19.2371 1.00006 18.9986 1.00006 18.75ZM25.3751 18.75C25.3751 18.5014 25.4738 18.2629 25.6496 18.0871C25.8255 17.9113 26.0639 17.8125 26.3126 17.8125H30.0626C30.3112 17.8125 30.5497 17.9113 30.7255 18.0871C30.9013 18.2629 31.0001 18.5014 31.0001 18.75C31.0001 18.9986 30.9013 19.2371 30.7255 19.4129C30.5497 19.5887 30.3112 19.6875 30.0626 19.6875H26.3126C26.0639 19.6875 25.8255 19.5887 25.6496 19.4129C25.4738 19.2371 25.3751 18.9986 25.3751 18.75Z" fill="black"/>
</svg>
